<svg xmlns="http://www.w3.org/2000/svg" viewBox="0 0 4197.21 1468.32"><defs><style>.cls-1{fill:#fff;}</style></defs><g id="レイヤー_2" data-name="レイヤー 2"><g id="レイヤー_1-2" data-name="レイヤー 1"><path class="cls-1" d="M472.5,967.47,253.36,748.33a20.06,20.06,0,0,0-28.35,0L5.87,967.47a20,20,0,0,0,0,28.35L472.5,1462.45a20,20,0,0,0,28.35,0L967.47,995.82a20,20,0,0,0,0-28.35L748.33,748.33a20.05,20.05,0,0,0-28.34,0L500.85,967.47A20,20,0,0,1,472.5,967.47Z"/><path class="cls-1" d="M748.33,720,967.47,500.85a20,20,0,0,0,0-28.35L500.85,5.87a20,20,0,0,0-28.35,0L5.87,472.5a20,20,0,0,0,0,28.35L225,720a20.06,20.06,0,0,0,28.35,0L472.5,500.85a20,20,0,0,1,28.35,0L720,720A20.05,20.05,0,0,0,748.33,720Z"/><path class="cls-1" d="M1412.52,838.15q-26.67,34.07-67.4,52.58a202,202,0,0,1-84.43,18.52,227.07,227.07,0,0,1-78.14-13.33q-36.66-13.33-63.69-38.15a178.51,178.51,0,0,1-42.58-59.62q-15.55-34.8-15.56-77.76t15.56-77.77A178.91,178.91,0,0,1,1118.86,583q27-24.79,63.69-38.14a226.83,226.83,0,0,1,78.14-13.33q38.5,0,70,13.33A145.93,145.93,0,0,1,1384,583q21.84,24.82,33.7,59.62t11.85,77.77V755.2H1171.82q6.66,31.84,28.88,50.73t54.81,18.89q27.39,0,46.28-12.22a124.33,124.33,0,0,0,33-31.48Zm-94.06-158.5q.72-28.12-18.52-48.14t-49.62-20q-18.52,0-32.59,5.92a82,82,0,0,0-24.07,15.19,66.6,66.6,0,0,0-15.55,21.47,70.53,70.53,0,0,0-6.29,25.55Z"/><path class="cls-1" d="M1482.13,540.42h106.65V589.3h1.48a90,90,0,0,1,14.81-20.74,107.47,107.47,0,0,1,23-18.51,131.32,131.32,0,0,1,30.37-13.34,127.18,127.18,0,0,1,37-5.18q42.21,0,68.14,13t40.36,35.92q14.44,23,19.63,54.07a412.37,412.37,0,0,1,5.18,67.39V900.36H1717.65V724.09q0-15.55-1.11-32.21a101.73,101.73,0,0,0-6.67-30.74,53.08,53.08,0,0,0-17-23q-11.49-8.88-33-8.89t-34.81,7.78a53,53,0,0,0-20.37,20.74,84.82,84.82,0,0,0-9.26,29.25,252.41,252.41,0,0,0-2.22,34.07V900.36H1482.13Z"/><path class="cls-1" d="M2118.32,855.18h-1.49q-18.51,28.89-49.25,41.48a169.39,169.39,0,0,1-64.8,12.59,167.08,167.08,0,0,1-48.51-7,122.13,122.13,0,0,1-41.11-21.11A101.8,101.8,0,0,1,1885,846.3q-10.38-20.73-10.37-48.15,0-31.1,11.48-52.58A102.81,102.81,0,0,1,1917.24,710a154.64,154.64,0,0,1,44.8-21.85,328.49,328.49,0,0,1,52.22-11.48,502.21,502.21,0,0,1,54.06-4.44q27-.74,50-.74,0-29.61-21.11-47t-50-17.41q-27.42,0-50,11.48A136.68,136.68,0,0,0,1956.86,650l-59.25-60.73A203.78,203.78,0,0,1,1970.19,546a259.36,259.36,0,0,1,85.91-14.44q48.89,0,80.36,12.22t50.36,35.92q18.88,23.72,26.3,58.14t7.4,79.62V900.36h-102.2Zm-27.41-112.57q-12.6,0-31.47,1.11a160.23,160.23,0,0,0-36.29,6.29,80.86,80.86,0,0,0-29.63,15.56q-12.23,10.38-12.22,28.88,0,20,17,29.63a71.2,71.2,0,0,0,35.55,9.62,111.57,111.57,0,0,0,31.47-4.44,93.58,93.58,0,0,0,27-12.59,60.91,60.91,0,0,0,18.89-20.74q7-12.58,7-29.62v-23.7Z"/><path class="cls-1" d="M2275.32,540.42H2382V589.3h1.48a90,90,0,0,1,14.81-20.74,107.47,107.47,0,0,1,23-18.51,131.32,131.32,0,0,1,30.37-13.34,127.18,127.18,0,0,1,37-5.18q42.21,0,68.14,13t40.36,35.92q14.45,23,19.63,54.07a412.37,412.37,0,0,1,5.18,67.39V900.36H2510.84V724.09q0-15.55-1.11-32.21a102,102,0,0,0-6.67-30.74,53.08,53.08,0,0,0-17-23q-11.49-8.88-33-8.89t-34.81,7.78a53,53,0,0,0-20.37,20.74,84.82,84.82,0,0,0-9.26,29.25,252.41,252.41,0,0,0-2.22,34.07V900.36H2275.32Z"/><path class="cls-1" d="M2847.81,433.77V540.42h97.76v88.87h-97.76v120a225.3,225.3,0,0,0,1.48,27,54.43,54.43,0,0,0,6.67,21.1q5.17,8.9,15.92,13.71t28.52,4.81a191,191,0,0,0,23.33-1.85q14.43-1.85,21.84-8.52v92.58a168.17,168.17,0,0,1-38.51,8.89,355.66,355.66,0,0,1-39.25,2.22,213.4,213.4,0,0,1-51.84-5.93q-23.71-5.91-41.48-18.88a88.36,88.36,0,0,1-27.77-33.7q-10-20.73-10-50.36V629.29h-71.1"/><path class="cls-1" d="M3009.27,427.1a64.42,64.42,0,0,1,110-45.55q18.89,18.88,18.89,45.55t-18.89,45.55q-18.89,18.89-45.55,18.89t-45.55-18.89A62.07,62.07,0,0,1,3009.27,427.1Zm8.88,113.32h111.1V900.36h-111.1Z"/><path class="cls-1" d="M3181.09,720.39q0-42.95,15.55-77.77A179.08,179.08,0,0,1,3239.23,583q27-24.79,63.69-38.14a235.66,235.66,0,0,1,156.27,0q36.66,13.33,63.69,38.14a179.22,179.22,0,0,1,42.59,59.62Q3581,677.45,3581,720.39t-15.55,77.76a178.82,178.82,0,0,1-42.59,59.62q-27,24.83-63.69,38.15a235.66,235.66,0,0,1-156.27,0q-36.66-13.33-63.69-38.15a178.68,178.68,0,0,1-42.59-59.62Q3181.09,763.35,3181.09,720.39Zm111.09,0q0,40.74,23.33,65.91t65.55,25.19q42.21,0,65.54-25.19t23.33-65.91q0-40.73-23.33-65.92t-65.54-25.18q-42.22,0-65.55,25.18T3292.18,720.39Z"/><path class="cls-1" d="M3631.37,540.42H3738V589.3h1.48a89.77,89.77,0,0,1,14.82-20.74,107.47,107.47,0,0,1,23-18.51,131.24,131.24,0,0,1,30.36-13.34,127.18,127.18,0,0,1,37-5.18q37.77,0,67,15.55T3955.77,596q19.24-34.8,46.66-49.62t67.39-14.81q36.29,0,61.1,12.22t39.26,33.33q14.44,21.1,20.73,49.62a283.5,283.5,0,0,1,6.3,61.1V900.36H4086.12V690.76q0-25.17-10.74-43.32t-38.15-18.15q-19.26,0-32.21,6.3a53.12,53.12,0,0,0-20.74,17.4,72.48,72.48,0,0,0-11.11,25.92,141.68,141.68,0,0,0-3.33,31.11V900.36h-111.1V710q0-9.62-.74-23.7a94.69,94.69,0,0,0-5.18-26.66,51,51,0,0,0-14.44-21.48q-10-8.88-29.26-8.89-21.48,0-34.81,7.78A53,53,0,0,0,3754,657.81a84.6,84.6,0,0,0-9.26,29.25,252.41,252.41,0,0,0-2.22,34.07V900.36h-111.1Z"/></g></g></svg>